<svg xmlns="http://www.w3.org/2000/svg" xmlns:xlink="http://www.w3.org/1999/xlink" width="300" zoomAndPan="magnify" viewBox="0 0 375 374.999991" height="300" preserveAspectRatio="xMidYMid meet" version="1.0"><defs><g/></defs><rect x="-37.5" width="450" fill="#ffffff" y="-37.499999" height="449.999989" fill-opacity="1"/><rect x="-37.5" width="450" fill="#ffffff" y="-37.499999" height="449.999989" fill-opacity="1"/><g fill="#39e112" fill-opacity="1"><g transform="translate(59.814847, 202.874987)"><g><path d="M 13.359375 0.625 C 17.78125 0.625 21.59375 -1.703125 23.53125 -5.21875 L 18.5 -8.09375 C 17.59375 -6.25 15.65625 -5.125 13.3125 -5.125 C 9.859375 -5.125 7.296875 -7.6875 7.296875 -11.25 C 7.296875 -14.84375 9.859375 -17.421875 13.3125 -17.421875 C 15.609375 -17.421875 17.546875 -16.25 18.453125 -14.40625 L 23.4375 -17.328125 C 21.59375 -20.796875 17.78125 -23.125 13.359375 -23.125 C 6.53125 -23.125 1.484375 -17.953125 1.484375 -11.25 C 1.484375 -4.546875 6.53125 0.625 13.359375 0.625 Z M 13.359375 0.625 "/></g></g></g><g fill="#39e112" fill-opacity="1"><g transform="translate(83.928588, 202.874987)"><g><path d="M 17.453125 -22.5 L 11.96875 -6.75 L 6.53125 -22.5 L 0.140625 -22.5 L 8.6875 0 L 15.296875 0 L 23.84375 -22.5 Z M 17.453125 -22.5 "/></g></g></g><g fill="#ffffff" fill-opacity="1"><g transform="translate(107.908594, 202.874987)"><g><path d="M 22.5 -22.5 L 22.5 -18.09375 C 20.609375 -21.109375 17.421875 -23.046875 13.40625 -23.046875 C 7.0625 -23.046875 1.796875 -17.90625 1.796875 -11.25 C 1.796875 -4.59375 7.0625 0.546875 13.40625 0.546875 C 17.421875 0.546875 20.609375 -1.390625 22.5 -4.40625 L 22.5 -0.90625 C 22.5 3.6875 19.390625 6.65625 14.171875 6.65625 C 9.3125 6.65625 7.25 4.859375 6.125 2.5625 L 3.515625 4.046875 C 5.265625 7.5625 9 9.546875 14.171875 9.546875 C 19.984375 9.546875 25.46875 5.9375 25.46875 -0.90625 L 25.46875 -22.5 Z M 13.640625 -2.34375 C 8.640625 -2.34375 4.765625 -6.25 4.765625 -11.25 C 4.765625 -16.25 8.640625 -20.15625 13.640625 -20.15625 C 18.625 -20.15625 22.5 -16.25 22.5 -11.25 C 22.5 -6.25 18.625 -2.34375 13.640625 -2.34375 Z M 13.640625 -2.34375 "/></g></g></g><g fill="#ffffff" fill-opacity="1"><g transform="translate(136.521168, 202.874987)"><g><path d="M 13.546875 -23.046875 C 6.5625 -23.046875 1.796875 -17.859375 1.796875 -11.25 C 1.796875 -4.453125 6.65625 0.546875 13.765625 0.546875 C 18.3125 0.546875 21.78125 -1.578125 23.671875 -4.640625 L 21.0625 -6.171875 C 19.84375 -4 17.375 -2.34375 13.8125 -2.34375 C 9.046875 -2.34375 5.484375 -5.171875 4.859375 -9.765625 L 24.609375 -9.765625 C 24.65625 -10.21875 24.703125 -10.703125 24.703125 -11.15625 C 24.703125 -17.328125 20.4375 -23.046875 13.546875 -23.046875 Z M 13.546875 -20.15625 C 17.421875 -20.15625 21.015625 -17.59375 21.640625 -12.640625 L 4.859375 -12.640625 C 5.4375 -17.0625 8.8125 -20.15625 13.546875 -20.15625 Z M 13.546875 -20.15625 "/></g></g></g><g fill="#ffffff" fill-opacity="1"><g transform="translate(162.794352, 202.874987)"><g><path d="M 13.6875 -23.046875 C 10.484375 -23.046875 7.875 -21.828125 6.125 -18.984375 L 6.125 -22.5 L 3.15625 -22.5 L 3.15625 0 L 6.125 0 L 6.125 -11.796875 C 6.125 -17.8125 9.453125 -20.15625 13.40625 -20.15625 C 17.328125 -20.15625 19.53125 -17.8125 19.53125 -13.8125 L 19.53125 0 L 22.5 0 L 22.5 -13.8125 C 22.5 -19.4375 19.171875 -23.046875 13.6875 -23.046875 Z M 13.6875 -23.046875 "/></g></g></g><g fill="#ffffff" fill-opacity="1"><g transform="translate(187.897835, 202.874987)"><g><path d="M 13.546875 -23.046875 C 6.5625 -23.046875 1.796875 -17.859375 1.796875 -11.25 C 1.796875 -4.453125 6.65625 0.546875 13.765625 0.546875 C 18.3125 0.546875 21.78125 -1.578125 23.671875 -4.640625 L 21.0625 -6.171875 C 19.84375 -4 17.375 -2.34375 13.8125 -2.34375 C 9.046875 -2.34375 5.484375 -5.171875 4.859375 -9.765625 L 24.609375 -9.765625 C 24.65625 -10.21875 24.703125 -10.703125 24.703125 -11.15625 C 24.703125 -17.328125 20.4375 -23.046875 13.546875 -23.046875 Z M 13.546875 -20.15625 C 17.421875 -20.15625 21.015625 -17.59375 21.640625 -12.640625 L 4.859375 -12.640625 C 5.4375 -17.0625 8.8125 -20.15625 13.546875 -20.15625 Z M 13.546875 -20.15625 "/></g></g></g><g fill="#ffffff" fill-opacity="1"><g transform="translate(214.171019, 202.874987)"><g><path d="M 6.125 -18.765625 L 6.125 -22.5 L 3.15625 -22.5 L 3.15625 0 L 6.125 0 L 6.125 -12.515625 C 6.125 -18.09375 9.625 -19.984375 13.234375 -19.984375 L 13.234375 -22.859375 C 10.34375 -22.859375 7.6875 -21.921875 6.125 -18.765625 Z M 6.125 -18.765625 "/></g></g></g><g fill="#ffffff" fill-opacity="1"><g transform="translate(228.297353, 202.874987)"><g><path d="M 22.5 -22.5 L 22.5 -18.09375 C 20.609375 -21.109375 17.421875 -23.046875 13.40625 -23.046875 C 7.0625 -23.046875 1.796875 -17.90625 1.796875 -11.25 C 1.796875 -4.59375 7.0625 0.546875 13.40625 0.546875 C 17.421875 0.546875 20.609375 -1.390625 22.5 -4.40625 L 22.5 0 L 25.46875 0 L 25.46875 -22.5 Z M 13.640625 -2.34375 C 8.640625 -2.34375 4.765625 -6.25 4.765625 -11.25 C 4.765625 -16.25 8.640625 -20.15625 13.640625 -20.15625 C 18.625 -20.15625 22.5 -16.25 22.5 -11.25 C 22.5 -6.25 18.625 -2.34375 13.640625 -2.34375 Z M 13.640625 -2.34375 "/></g></g></g><g fill="#ffffff" fill-opacity="1"><g transform="translate(256.909927, 202.874987)"><g><path d="M 15.078125 -19.625 L 15.078125 -22.5 L 8.59375 -22.5 L 8.59375 -28.796875 L 5.625 -27.90625 L 5.625 -22.5 L 0.90625 -22.5 L 0.90625 -19.625 L 5.625 -19.625 L 5.625 -5.984375 C 5.625 -0.578125 9 0.90625 15.078125 0 L 15.078125 -2.609375 C 10.703125 -2.4375 8.59375 -2.109375 8.59375 -5.984375 L 8.59375 -19.625 Z M 15.078125 -19.625 "/></g></g></g><g fill="#ffffff" fill-opacity="1"><g transform="translate(273.780554, 202.874987)"><g><path d="M 13.640625 0.546875 C 20.203125 0.546875 25.46875 -4.59375 25.46875 -11.25 C 25.46875 -17.90625 20.203125 -23.046875 13.640625 -23.046875 C 7.0625 -23.046875 1.796875 -17.90625 1.796875 -11.25 C 1.796875 -4.59375 7.0625 0.546875 13.640625 0.546875 Z M 13.640625 -2.34375 C 8.640625 -2.34375 4.765625 -6.25 4.765625 -11.25 C 4.765625 -16.25 8.640625 -20.15625 13.640625 -20.15625 C 18.625 -20.15625 22.5 -16.25 22.5 -11.25 C 22.5 -6.25 18.625 -2.34375 13.640625 -2.34375 Z M 13.640625 -2.34375 "/></g></g></g><g fill="#ffffff" fill-opacity="1"><g transform="translate(301.043469, 202.874987)"><g><path d="M 6.125 -18.765625 L 6.125 -22.5 L 3.15625 -22.5 L 3.15625 0 L 6.125 0 L 6.125 -12.515625 C 6.125 -18.09375 9.625 -19.984375 13.234375 -19.984375 L 13.234375 -22.859375 C 10.34375 -22.859375 7.6875 -21.921875 6.125 -18.765625 Z M 6.125 -18.765625 "/></g></g></g></svg>